<?xml version="1.0" standalone="no"?>
<!DOCTYPE svg PUBLIC "-//W3C//DTD SVG 20010904//EN"
 "http://www.w3.org/TR/2001/REC-SVG-20010904/DTD/svg10.dtd">
<svg version="1.0" xmlns="http://www.w3.org/2000/svg"
 width="225.000000pt" height="225.000000pt" viewBox="0 0 225.000000 225.000000"
 preserveAspectRatio="xMidYMid meet">
<metadata>
Created by potrace 1.15, written by Peter Selinger 2001-2017
</metadata>
<g transform="translate(0.000000,225.000000) scale(0.100000,-0.100000)"
fill="#000000" stroke="none">
<path d="M855 1894 c-164 -16 -248 -26 -300 -36 -117 -21 -196 -80 -228 -169
-24 -65 -70 -384 -63 -431 9 -56 39 -110 81 -146 74 -65 79 -67 325 -72 l225
-5 80 -37 c44 -20 98 -39 120 -42 50 -8 134 13 215 54 l59 30 199 0 c236 0
271 8 343 80 34 34 52 63 65 103 17 55 17 59 -10 248 -15 105 -34 209 -43 230
-23 59 -100 123 -172 143 -117 33 -279 47 -571 51 -157 1 -303 1 -325 -1z
m695 -188 c149 -20 186 -30 205 -60 13 -19 65 -307 65 -359 0 -10 -13 -32 -29
-48 l-29 -29 -197 0 c-214 0 -226 2 -280 60 -61 66 -125 110 -160 110 -35 0
-99 -44 -160 -110 -54 -58 -66 -60 -280 -60 l-197 0 -29 29 c-16 16 -29 38
-29 48 0 40 51 335 60 353 14 27 35 36 110 50 228 41 693 49 950 16z"/>
<path d="M1015 836 c-193 -91 -195 -364 -3 -460 97 -48 228 -26 300 50 120
129 73 351 -89 419 -55 23 -149 19 -208 -9z m181 -121 c81 -53 76 -178 -9
-222 -89 -46 -190 15 -190 115 0 101 114 163 199 107z"/>
<path d="M1470 607 l0 -85 168 -4 c148 -3 172 -6 207 -25 76 -41 144 -137 145
-205 l0 -28 85 0 85 0 0 35 c0 45 -33 145 -64 193 -40 63 -108 122 -185 160
l-75 37 -183 3 -183 4 0 -85z"/>
</g>
</svg>
